<?xml version="1.0" standalone="no"?><!DOCTYPE svg PUBLIC "-//W3C//DTD SVG 1.1//EN" "http://www.w3.org/Graphics/SVG/1.1/DTD/svg11.dtd"><svg t="1658397377850" class="icon" viewBox="0 0 1066 1024" version="1.1" xmlns="http://www.w3.org/2000/svg" p-id="3355" xmlns:xlink="http://www.w3.org/1999/xlink" width="208.203125" height="200"><defs><style type="text/css"></style></defs><path d="M960.006666 0.063993H107.743443C55.418227 0.063993 11.860098 41.2757 11.860098 93.707572v623.572378c0 25.469347 10.409582 49.829476 28.285054 67.55563a96.288637 96.288637 0 0 0 67.598291 27.8371h260.730174c-6.378002 90.742548-42.42758 144.688928-44.176731 147.312655a40.187814 40.187814 0 0 0-3.135674 41.936965c6.889949 13.481262 20.904489 22.099031 36.177565 22.099031h353.221873c15.145089 0 29.287616-8.980398 36.177565-22.46166 6.868618-13.481262 5.7594-29.223623-3.26366-41.446349-1.749151-2.623727-37.926716-56.80475-44.304719-147.568629h260.83683c52.965149 0 94.518154-43.451474 94.518154-95.499385V93.707572c0-52.559858-41.553005-93.643579-94.518154-93.643579zM107.743443 80.482283h852.263223c8.148485 0 13.907885 5.354109 13.907885 13.225289v431.443058H92.470368V93.707572c0-8.233809 7.401896-13.225289 15.273075-13.225289z m537.970628 863.270076H421.908051c12.393376-32.337965 24.296136-76.152067 27.431809-130.951692h168.963733c3.135673 54.799625 15.017102 98.613728 27.410478 130.951692z m314.292595-211.476638H107.743443c-8.127153 0-15.273076-6.996605-15.273075-14.995771v-111.732361h881.444183v111.732361c0 7.636538-5.396771 14.995771-13.907885 14.995771z" p-id="3356"></path></svg>